
    <svg data-v-0dd9719b="" version="1.0" xmlns="http://www.w3.org/2000/svg" xmlns:xlink="http://www.w3.org/1999/xlink" width="100%" height="100%" viewBox="0 0 92.34117866918773 92.34117866918773" preserveAspectRatio="xMidYMid meet" color-interpolation-filters="sRGB" style="margin: auto;"> <rect data-v-0dd9719b="" x="0" y="0" width="100%" height="100%" fill="#ffffff" fill-opacity="0" class="background"></rect> <!----> <g data-v-0dd9719b="" fill="#1686cb" class="icon-text-wrapper icon-svg-group iconsvg" transform="translate(16.170589334593863, 13.19159687243566)"><g class="iconsvg-imagesvg" transform="translate(0,0)"><g><rect fill="#1686cb" fill-opacity="0" stroke-width="2" x="0" y="0" width="60" height="65.95798476370553" class="image-rect"></rect> <svg x="0" y="0" width="60" height="65.95798476370553" filtersec="colorsb6468782622" class="image-svg-svg primary" style="overflow: visible;"><svg xmlns="http://www.w3.org/2000/svg" viewBox="0 0 91.61819458007812 100.71585083007812"><g fill-rule="evenodd"><path d="M83.83 24.38A55.89 55.89 0 0 1 0 72.78a55.88 55.88 0 0 0 76.33 20.45 56.59 56.59 0 0 0 10.58-7.89 78.83 78.83 0 0 0-3.08-61z" fill="#000000"></path><path d="M45.93 3.9a55.53 55.53 0 0 1-1.67 28.88A55.86 55.86 0 0 1 2.54 70a55.85 55.85 0 0 0 54.72-11.38A55.61 55.61 0 0 0 71.44 39 79 79 0 0 0 45.93 3.9z" fill="#1686cb"></path><path d="M19.92 0a55.48 55.48 0 0 1 3.89 14.06 55.82 55.82 0 0 1-20.9 51.83 55.85 55.85 0 0 0 33.61-44.65c.17-1.45.29-2.9.36-4.33A79.06 79.06 0 0 0 19.92 0z" fill="#333333"></path></g></svg></svg> <!----></g></g> <g transform="translate(30,72.9579849243164)"><g data-gra="path-name" fill-rule="" class="tp-name iconsvg-namesvg"><g transform="scale(1)"><g><path d="" transform="translate(0, 0)"></path></g> <!----> <!----> <!----> <!----> <!----> <!----> <!----></g></g> <!----></g></g><defs v-gra="od"></defs></svg>